<svg id="tight" xmlns="http://www.w3.org/2000/svg" viewBox="0 0 580.441 175.891"><defs><style>.cls-1{fill:#fff;}.cls-2{fill:#fdfeff;fill-rule:evenodd;}</style></defs><title>cyara-logo-white</title><path class="cls-1" d="M46.655,156.983a41.814,41.814,0,0,1-30.572-12.848A44.978,44.978,0,0,1,3.933,112.8v-.243A45.238,45.238,0,0,1,16.112,81.247,41.938,41.938,0,0,1,46.9,68.139c15.248,0,24.356,5.485,33.341,13.721l.371.341-5.181,5.321-.351-.339c-6.32-6.113-14.626-12.363-28.3-12.363A34.161,34.161,0,0,0,21.586,85.649a38.682,38.682,0,0,0-10.123,26.669v.243A38.928,38.928,0,0,0,21.692,139.4,34.224,34.224,0,0,0,46.9,150.3c11.1,0,19.476-3.792,28.9-13.088l.341-.336,4.948,4.808-.355.35a54.178,54.178,0,0,1-14.726,10.818A43.944,43.944,0,0,1,46.655,156.983Z"/><path class="cls-1" d="M145.773,155.527h-7.288V121.576L101.62,69.6h9.089l.145.209,31.4,45.058L173.915,69.6h8.725l-36.867,51.859Z"/><path class="cls-1" d="M275.88,155.527h-8l-10.8-23.788H207.589l-10.8,23.788h-7.633l40.016-86.538h6.693Zm-65.175-30.469h43.264L232.4,77.574Z"/><path class="cls-1" d="M375.93,155.527h-9.246l-.146-.191-26.917-35.005H312.558v35.2H305.27V69.6h36.169c9.048,0,16.776,2.371,22.349,6.858a22.125,22.125,0,0,1,8.48,17.781v.243a22.194,22.194,0,0,1-7.228,17.093c-4.214,3.854-10.162,6.453-17.241,7.543ZM312.558,113.65h28.153c7.031,0,13.051-1.734,17.41-5.014a16.791,16.791,0,0,0,6.859-13.915v-.243c0-11.321-8.936-18.08-23.905-18.08H312.558Z"/><path class="cls-1" d="M488.468,155.527h-8l-10.8-23.788H420.177l-10.8,23.788h-7.632l.32-.694,39.7-85.844h6.693l.131.283Zm-65.176-30.469h43.264L444.983,77.574Z"/><path class="cls-2" d="M548.743,44.183A134.171,134.171,0,0,0,522.886,35.1c-2.8-.7-5.578-1.317-8.28-1.862-.188-.181-.374-.357-.564-.53l-.147-.132c-.222-.2-.447-.4-.674-.6l-.11-.095c-.245-.21-.491-.418-.743-.625-.02-.018-.042-.035-.064-.052q-.406-.333-.821-.659l0,0a66.308,66.308,0,0,0-18.41-9.726l.032.007c-10.961-3.956-23.463-6.208-35.439-7.532h-.015c-.354-.039-.711-.081-1.063-.118a4.58,4.58,0,0,1-2.912-2.084,3.951,3.951,0,0,1-.476-1.473c-.257-2.211,1.29-4.7,3.994-6.062a8.536,8.536,0,0,1,3.682-.926s65.911-4.776,83.781,27.228c.18.325.354.65.52.979.039.074.078.149.115.225.166.33.327.66.479,1l0,.012c.151.332.295.667.437,1,.027.071.056.139.083.208.142.344.279.691.406,1.04v0q.193.528.366,1.063c.02.053.037.107.054.161.234.73.445,1.471.63,2.218.007.032.015.066.025.1q.282,1.163.488,2.343a.034.034,0,0,1,0,.017A38.794,38.794,0,0,1,548.743,44.183Z"/><path class="cls-2" d="M542.058,76.13a170.428,170.428,0,0,1-20.6,35,7.922,7.922,0,0,1-.733.843,8.309,8.309,0,0,1-2.138,1.541c-3.325,1.679-7.146,1.034-8.529-1.446a4.185,4.185,0,0,1-.186-3.462c8.124-14.735,15.283-31.532,15.8-46.7A59.32,59.32,0,0,1,542.058,76.13Z"/><path class="cls-2" d="M576.743,72.107c-17.388-39.628-95.385-41.454-95.385-41.454a10.052,10.052,0,0,0-4.432.673c-4.1,1.6-6.332,5.386-4.986,8.455a5.426,5.426,0,0,0,3.188,2.779c14.307,2.924,29.243,7.048,42.053,13.114l-.038-.012c8.284,3.919,15.682,8.648,21.446,14.391l.038.038q.423.422.833.85l.089.094c.256.269.507.539.756.812l.128.141q.35.387.69.781c.053.06.1.121.157.182q.322.375.635.757l.178.217c.2.245.393.492.586.74.065.082.13.165.193.248.185.241.365.483.544.727.067.091.135.182.2.274.172.239.34.48.507.721.068.1.137.2.2.294.163.239.321.48.478.722.067.1.135.2.2.309.154.242.3.486.453.731.064.105.13.209.192.314.15.25.294.5.438.757.058.1.117.2.174.3.149.267.292.537.434.807.048.091.1.18.145.271q.243.471.473.95c.023.048.048.095.071.144q.266.556.514,1.123c10.248,23.354-4.35,53.127-20.922,77.368a4.954,4.954,0,0,0-.173,4.091c1.347,3.069,5.763,4.26,9.863,2.66a10.075,10.075,0,0,0,1.326-.635A9.217,9.217,0,0,0,540.311,165S593.315,109.873,576.743,72.107Z"/></svg>