<svg id="tight" xmlns="http://www.w3.org/2000/svg" viewBox="0 0 580.44 175.89"><defs><style>.cls-1{fill:#3e82c4;}.cls-1,.cls-2,.cls-3{fill-rule:evenodd;}.cls-2{fill:#2cace2;}.cls-3{fill:#145da9;}.cls-4{fill:#373737;}</style></defs><title>cyara-logo</title><path class="cls-1" d="M544.64,29.86c17,30.5-23.19,81.27-23.19,81.27a8.11,8.11,0,0,1-2.87,2.38c-3.33,1.68-7.15,1-8.53-1.44a4.19,4.19,0,0,1-.19-3.47c12-21.77,21.91-48.06,11.37-66.91s-39-25.78-64.65-28.51a4.55,4.55,0,0,1-2.91-2.08c-1.39-2.48.19-5.86,3.51-7.54a8.56,8.56,0,0,1,3.69-.92s65.9-4.78,83.77,27.22Z"/><path class="cls-2" d="M543.66,35.67c-19.24-28.57-78.45-23.19-86-22.37l-1.06-.12a4.55,4.55,0,0,1-2.91-2.08c-1.39-2.48.19-5.85,3.51-7.54a8.56,8.56,0,0,1,3.69-.92s65.9-4.78,83.77,27.22a36.16,36.16,0,0,1,4.17,19A33.38,33.38,0,0,0,543.66,35.67Z"/><path class="cls-3" d="M529.55,40.08c12.23,16.55,6.74,41.08-2,62.48-3.56,5.33-6.12,8.57-6.12,8.57a8.11,8.11,0,0,1-2.87,2.38c-3.33,1.68-7.15,1-8.53-1.44a4.19,4.19,0,0,1-.19-3.47c12-21.77,21.91-48.06,11.37-66.91-5.49-9.84-15.86-16.43-28.17-20.87C508.33,23.92,521.88,29.69,529.55,40.08Z"/><path class="cls-1" d="M576.72,72.11C593.29,109.87,540.3,165,540.3,165a9.56,9.56,0,0,1-3.64,2.48c-4.1,1.6-8.52.41-9.87-2.66a5,5,0,0,1,.18-4.09c16.57-24.24,31.16-54,20.92-77.36S505,48.67,475.12,42.56a5.41,5.41,0,0,1-3.19-2.77c-1.34-3.07.89-6.86,5-8.46a10.1,10.1,0,0,1,4.43-.67s78,1.82,95.37,41.45Z"/><path class="cls-2" d="M574.92,78.83c-19.38-35.76-89.57-36.11-98.56-36l-1.24-.25a5.45,5.45,0,0,1-3.19-2.78c-1.34-3.07.89-6.86,5-8.46a10.1,10.1,0,0,1,4.43-.67s78,1.83,95.37,41.45C579.86,79.26,580.5,87,579.48,95A39.39,39.39,0,0,0,574.92,78.83Z"/><path class="cls-3" d="M557.84,82.41c12.51,20.84,3.29,49-9.38,73.21-4.79,5.86-8.16,9.37-8.16,9.37a9.56,9.56,0,0,1-3.64,2.48c-4.1,1.6-8.52.41-9.87-2.66a5,5,0,0,1,.18-4.09c16.57-24.24,31.16-54,20.92-77.36-5.35-12.18-16.8-21.09-30.76-27.7C534.72,61,550,69.34,557.84,82.41Z"/><path class="cls-4" d="M46.66,157a41.81,41.81,0,0,1-30.58-12.85A45,45,0,0,1,3.93,112.8v-.24A45.23,45.23,0,0,1,16.11,81.25,41.92,41.92,0,0,1,46.9,68.14c15.25,0,24.35,5.48,33.34,13.72l.37.34-5.18,5.32-.35-.34c-6.32-6.11-14.63-12.36-28.3-12.36A34.15,34.15,0,0,0,21.59,85.65a38.67,38.67,0,0,0-10.13,26.67v.24A39,39,0,0,0,21.69,139.4,34.23,34.23,0,0,0,46.9,150.3c11.1,0,19.47-3.79,28.9-13.09l.34-.33,5,4.81-.35.35A54.29,54.29,0,0,1,66,152.85,43.93,43.93,0,0,1,46.66,157Z"/><path class="cls-4" d="M145.77,155.53h-7.28V121.58l-36.87-52h9.09l.14.2,31.4,45.06L173.91,69.6h8.73l-36.87,51.86Z"/><path class="cls-4" d="M275.88,155.53h-8l-10.8-23.79H207.59l-10.8,23.79h-7.63l40-86.54h6.69ZM210.7,125.06H254L232.4,77.57Z"/><path class="cls-4" d="M375.93,155.53h-9.25l-.14-.19-26.92-35H312.56v35.2h-7.29V69.6h36.17c9.05,0,16.78,2.37,22.35,6.85a22.13,22.13,0,0,1,8.48,17.79v.24c0,7-2.43,12.71-7.23,17.09-4.21,3.86-10.16,6.45-17.24,7.54Zm-63.37-41.88h28.15c7,0,13.05-1.73,17.41-5A16.79,16.79,0,0,0,365,94.72v-.24C365,83.16,356,76.4,341.07,76.4H312.56Z"/><path class="cls-4" d="M488.47,155.53h-8l-10.8-23.79H420.18l-10.8,23.79h-7.64l.32-.7L441.76,69h6.69l.13.28Zm-65.18-30.47h43.27L445,77.57Z"/></svg>