<svg id="cyara-boomerangs" xmlns="http://www.w3.org/2000/svg" viewBox="0 0 200 200"><defs><style>.cls-1{fill:#3e81c1}.cls-1,.cls-2,.cls-3{fill-rule:evenodd}.cls-2{fill:#2daae1}.cls-3{fill:#165da7}</style></defs><path class="cls-1" d="M130.495 39.83c18.489 33.11-25.178 88.228-25.178 88.228a8.77 8.77 0 01-3.114 2.587c-3.612 1.825-7.758 1.124-9.26-1.567a4.553 4.553 0 01-.202-3.76c13.036-23.643 23.78-52.177 12.347-72.651C93.655 32.192 62.787 24.684 34.892 21.72a4.988 4.988 0 01-3.161-2.264c-1.503-2.69.207-6.352 3.82-8.176a9.241 9.241 0 013.997-1.006s71.548-5.185 90.947 29.556z"/><path class="cls-2" d="M129.436 46.14c-20.89-31.025-85.17-25.176-93.39-24.291-.384-.043-.77-.088-1.154-.129a4.988 4.988 0 01-3.161-2.263c-1.503-2.69.207-6.352 3.82-8.177a9.243 9.243 0 013.997-1.005s71.549-5.186 90.948 29.555c3.503 6.275 4.771 13.34 4.531 20.67a36.319 36.319 0 00-5.59-14.36z"/><path class="cls-3" d="M114.118 50.922c13.278 17.974 7.32 44.596-2.155 67.837-3.863 5.784-6.647 9.299-6.647 9.299a8.764 8.764 0 01-3.113 2.588c-3.612 1.824-7.759 1.123-9.261-1.568a4.552 4.552 0 01-.202-3.759c13.037-23.644 23.781-52.178 12.348-72.652-5.965-10.683-17.225-17.83-30.589-22.65 16.575 3.36 31.29 9.63 39.62 20.905z"/><path class="cls-1" d="M165.33 85.695c17.99 40.997-39.548 100.843-39.548 100.843a10.345 10.345 0 01-3.951 2.69c-4.452 1.737-9.245.444-10.707-2.888a5.375 5.375 0 01.187-4.44c17.99-26.315 33.837-58.635 22.713-83.987-11.125-25.352-46.555-37.66-79.001-44.292a5.89 5.89 0 01-3.46-3.017c-1.462-3.332.961-7.441 5.412-9.178a10.911 10.911 0 014.811-.73s84.669 1.982 103.545 45z"/><path class="cls-2" d="M163.374 92.992c-21.047-38.82-97.25-39.202-107.009-39.09-.447-.092-.896-.189-1.342-.28a5.89 5.89 0 01-3.46-3.017c-1.462-3.332.961-7.441 5.412-9.178a10.911 10.911 0 014.811-.73s84.669 1.982 103.545 45c3.409 7.768 4.102 16.214 2.992 24.802a42.873 42.873 0 00-4.95-17.507z"/><path class="cls-3" d="M144.833 96.882c13.575 22.622 3.567 53.236-10.191 79.48-5.192 6.36-8.86 10.176-8.86 10.176a10.342 10.342 0 01-3.952 2.69c-4.451 1.737-9.245.444-10.706-2.888a5.374 5.374 0 01.187-4.44c17.99-26.315 33.836-58.635 22.712-83.987-5.804-13.227-18.23-22.897-33.391-30.07 19.1 5.82 35.685 14.848 44.201 29.039z"/></svg>